<mxfile host="Electron" agent="Mozilla/5.0 (Windows NT 10.0; Win64; x64) AppleWebKit/537.36 (KHTML, like Gecko) draw.io/24.7.17 Chrome/128.0.6613.36 Electron/32.0.1 Safari/537.36" version="24.7.17">
  <diagram name="Page-1" id="wajRzKq7z1wLYM53FpTx">
    <mxGraphModel dx="3563" dy="1304" grid="1" gridSize="10" guides="1" tooltips="1" connect="1" arrows="1" fold="1" page="1" pageScale="1" pageWidth="1654" pageHeight="1169" math="0" shadow="0">
      <root>
        <mxCell id="0" />
        <mxCell id="1" parent="0" />
        <mxCell id="DEyYZ8olGmQfGEQhswtA-32" style="edgeStyle=orthogonalEdgeStyle;rounded=0;orthogonalLoop=1;jettySize=auto;html=1;exitX=0.5;exitY=1;exitDx=0;exitDy=0;entryX=0.5;entryY=0;entryDx=0;entryDy=0;" edge="1" parent="1" source="DEyYZ8olGmQfGEQhswtA-14" target="DEyYZ8olGmQfGEQhswtA-23">
          <mxGeometry relative="1" as="geometry" />
        </mxCell>
        <mxCell id="DEyYZ8olGmQfGEQhswtA-33" value="Realiza requisição HTTP" style="edgeLabel;html=1;align=center;verticalAlign=middle;resizable=0;points=[];" vertex="1" connectable="0" parent="DEyYZ8olGmQfGEQhswtA-32">
          <mxGeometry x="-0.3061" y="-2" relative="1" as="geometry">
            <mxPoint as="offset" />
          </mxGeometry>
        </mxCell>
        <mxCell id="DEyYZ8olGmQfGEQhswtA-14" value="&lt;b&gt;Aplicação Externa&lt;/b&gt;&lt;div&gt;&lt;font style=&quot;font-size: 8px;&quot;&gt;Aplicação de terceiros que irá comunicar com a aplicação criada através do template de solução&lt;/font&gt;&lt;/div&gt;" style="rounded=1;whiteSpace=wrap;html=1;fillColor=#647687;fontColor=#ffffff;strokeColor=#314354;" vertex="1" parent="1">
          <mxGeometry x="-790" y="50" width="210" height="100" as="geometry" />
        </mxCell>
        <mxCell id="DEyYZ8olGmQfGEQhswtA-22" value="" style="swimlane;startSize=0;dashed=1;dashPattern=8 8;" vertex="1" parent="1">
          <mxGeometry x="-1430" y="220" width="1140" height="870" as="geometry" />
        </mxCell>
        <mxCell id="DEyYZ8olGmQfGEQhswtA-34" style="edgeStyle=orthogonalEdgeStyle;rounded=0;orthogonalLoop=1;jettySize=auto;html=1;exitX=0;exitY=0.5;exitDx=0;exitDy=0;entryX=0.5;entryY=0;entryDx=0;entryDy=0;" edge="1" parent="DEyYZ8olGmQfGEQhswtA-22" source="DEyYZ8olGmQfGEQhswtA-23" target="DEyYZ8olGmQfGEQhswtA-26">
          <mxGeometry relative="1" as="geometry" />
        </mxCell>
        <mxCell id="DEyYZ8olGmQfGEQhswtA-35" value="Solicita a execução de uma&amp;nbsp;&lt;div&gt;regra de negócio específica&lt;/div&gt;" style="edgeLabel;html=1;align=center;verticalAlign=middle;resizable=0;points=[];" vertex="1" connectable="0" parent="DEyYZ8olGmQfGEQhswtA-34">
          <mxGeometry x="0.2694" relative="1" as="geometry">
            <mxPoint y="23" as="offset" />
          </mxGeometry>
        </mxCell>
        <mxCell id="DEyYZ8olGmQfGEQhswtA-36" style="edgeStyle=orthogonalEdgeStyle;rounded=0;orthogonalLoop=1;jettySize=auto;html=1;exitX=1;exitY=0.5;exitDx=0;exitDy=0;entryX=0.5;entryY=0;entryDx=0;entryDy=0;" edge="1" parent="DEyYZ8olGmQfGEQhswtA-22" source="DEyYZ8olGmQfGEQhswtA-23" target="DEyYZ8olGmQfGEQhswtA-28">
          <mxGeometry relative="1" as="geometry" />
        </mxCell>
        <mxCell id="DEyYZ8olGmQfGEQhswtA-37" value="Solicita dados a serem&amp;nbsp;&lt;div&gt;repassados para a aplicação terceira&lt;/div&gt;" style="edgeLabel;html=1;align=center;verticalAlign=middle;resizable=0;points=[];" vertex="1" connectable="0" parent="DEyYZ8olGmQfGEQhswtA-36">
          <mxGeometry x="0.292" y="-1" relative="1" as="geometry">
            <mxPoint x="1" y="10" as="offset" />
          </mxGeometry>
        </mxCell>
        <mxCell id="DEyYZ8olGmQfGEQhswtA-23" value="&lt;b&gt;Apresentação (API)&lt;/b&gt;&lt;div&gt;&lt;font style=&quot;font-size: 10px;&quot;&gt;&lt;i&gt;[.NET 8 Web API]&lt;/i&gt;&lt;/font&gt;&lt;/div&gt;" style="rounded=1;whiteSpace=wrap;html=1;fillColor=#1ba1e2;fontColor=#ffffff;strokeColor=#006EAF;" vertex="1" parent="DEyYZ8olGmQfGEQhswtA-22">
          <mxGeometry x="640" y="70" width="210" height="100" as="geometry" />
        </mxCell>
        <mxCell id="DEyYZ8olGmQfGEQhswtA-24" value="&lt;b&gt;Conversores (TypeConverters)&lt;/b&gt;&lt;div&gt;&lt;i&gt;&lt;font style=&quot;font-size: 10px;&quot;&gt;[.NET 8 Class Library]&lt;/font&gt;&lt;/i&gt;&lt;br&gt;&lt;/div&gt;" style="rounded=1;whiteSpace=wrap;html=1;fillColor=#1ba1e2;fontColor=#ffffff;strokeColor=#006EAF;" vertex="1" parent="DEyYZ8olGmQfGEQhswtA-22">
          <mxGeometry x="640" y="710" width="210" height="100" as="geometry" />
        </mxCell>
        <mxCell id="DEyYZ8olGmQfGEQhswtA-25" value="&lt;b&gt;Domínio (Domain)&lt;/b&gt;&lt;div&gt;&lt;i&gt;&lt;font style=&quot;font-size: 10px;&quot;&gt;[.NET 8 Class Library]&lt;/font&gt;&lt;/i&gt;&lt;br&gt;&lt;/div&gt;" style="rounded=1;whiteSpace=wrap;html=1;fillColor=#1ba1e2;fontColor=#ffffff;strokeColor=#006EAF;" vertex="1" parent="DEyYZ8olGmQfGEQhswtA-22">
          <mxGeometry x="640" y="470" width="210" height="100" as="geometry" />
        </mxCell>
        <mxCell id="DEyYZ8olGmQfGEQhswtA-38" style="edgeStyle=orthogonalEdgeStyle;rounded=0;orthogonalLoop=1;jettySize=auto;html=1;exitX=1;exitY=0.5;exitDx=0;exitDy=0;entryX=0.25;entryY=0;entryDx=0;entryDy=0;" edge="1" parent="DEyYZ8olGmQfGEQhswtA-22" source="DEyYZ8olGmQfGEQhswtA-26" target="DEyYZ8olGmQfGEQhswtA-25">
          <mxGeometry relative="1" as="geometry" />
        </mxCell>
        <mxCell id="DEyYZ8olGmQfGEQhswtA-39" value="Consome entidades,&amp;nbsp;&lt;div&gt;enumeradores, interfaces, etc.&lt;/div&gt;" style="edgeLabel;html=1;align=center;verticalAlign=middle;resizable=0;points=[];" vertex="1" connectable="0" parent="DEyYZ8olGmQfGEQhswtA-38">
          <mxGeometry x="0.3849" y="-2" relative="1" as="geometry">
            <mxPoint x="-21" y="-7" as="offset" />
          </mxGeometry>
        </mxCell>
        <mxCell id="DEyYZ8olGmQfGEQhswtA-42" style="edgeStyle=orthogonalEdgeStyle;rounded=0;orthogonalLoop=1;jettySize=auto;html=1;exitX=0.5;exitY=1;exitDx=0;exitDy=0;entryX=0;entryY=0.5;entryDx=0;entryDy=0;" edge="1" parent="DEyYZ8olGmQfGEQhswtA-22" source="DEyYZ8olGmQfGEQhswtA-26" target="DEyYZ8olGmQfGEQhswtA-24">
          <mxGeometry relative="1" as="geometry" />
        </mxCell>
        <mxCell id="DEyYZ8olGmQfGEQhswtA-43" value="Solicita a conversão de dados" style="edgeLabel;html=1;align=center;verticalAlign=middle;resizable=0;points=[];" vertex="1" connectable="0" parent="DEyYZ8olGmQfGEQhswtA-42">
          <mxGeometry x="-0.0336" y="-3" relative="1" as="geometry">
            <mxPoint as="offset" />
          </mxGeometry>
        </mxCell>
        <mxCell id="DEyYZ8olGmQfGEQhswtA-46" style="edgeStyle=orthogonalEdgeStyle;rounded=0;orthogonalLoop=1;jettySize=auto;html=1;exitX=0;exitY=0.5;exitDx=0;exitDy=0;entryX=1;entryY=0.5;entryDx=0;entryDy=0;" edge="1" parent="DEyYZ8olGmQfGEQhswtA-22" source="DEyYZ8olGmQfGEQhswtA-26" target="DEyYZ8olGmQfGEQhswtA-27">
          <mxGeometry relative="1" as="geometry" />
        </mxCell>
        <mxCell id="DEyYZ8olGmQfGEQhswtA-47" value="Realiza validações nos&amp;nbsp;&lt;div&gt;dados da requisição&lt;/div&gt;" style="edgeLabel;html=1;align=center;verticalAlign=middle;resizable=0;points=[];" vertex="1" connectable="0" parent="DEyYZ8olGmQfGEQhswtA-46">
          <mxGeometry x="0.1205" relative="1" as="geometry">
            <mxPoint x="15" as="offset" />
          </mxGeometry>
        </mxCell>
        <mxCell id="DEyYZ8olGmQfGEQhswtA-26" value="&lt;b&gt;Manipuladores (Handlers)&lt;/b&gt;&lt;div&gt;&lt;i&gt;&lt;font style=&quot;font-size: 10px;&quot;&gt;[.NET 8 Class Library]&lt;/font&gt;&lt;/i&gt;&lt;br&gt;&lt;/div&gt;" style="rounded=1;whiteSpace=wrap;html=1;fillColor=#1ba1e2;fontColor=#ffffff;strokeColor=#006EAF;" vertex="1" parent="DEyYZ8olGmQfGEQhswtA-22">
          <mxGeometry x="430" y="270" width="210" height="100" as="geometry" />
        </mxCell>
        <mxCell id="DEyYZ8olGmQfGEQhswtA-27" value="&lt;b&gt;Validadores (Validations)&lt;/b&gt;&lt;div&gt;&lt;i&gt;&lt;font style=&quot;font-size: 10px;&quot;&gt;[.NET 8 Class Library]&lt;/font&gt;&lt;/i&gt;&lt;br&gt;&lt;/div&gt;" style="rounded=1;whiteSpace=wrap;html=1;fillColor=#1ba1e2;fontColor=#ffffff;strokeColor=#006EAF;" vertex="1" parent="DEyYZ8olGmQfGEQhswtA-22">
          <mxGeometry x="50" y="270" width="210" height="100" as="geometry" />
        </mxCell>
        <mxCell id="DEyYZ8olGmQfGEQhswtA-40" style="edgeStyle=orthogonalEdgeStyle;rounded=0;orthogonalLoop=1;jettySize=auto;html=1;exitX=0;exitY=0.5;exitDx=0;exitDy=0;entryX=0.75;entryY=0;entryDx=0;entryDy=0;" edge="1" parent="DEyYZ8olGmQfGEQhswtA-22" source="DEyYZ8olGmQfGEQhswtA-28" target="DEyYZ8olGmQfGEQhswtA-25">
          <mxGeometry relative="1" as="geometry" />
        </mxCell>
        <mxCell id="DEyYZ8olGmQfGEQhswtA-41" value="Consome entidades,&amp;nbsp;&lt;div&gt;enumeradores, interfaces, etc.&lt;/div&gt;" style="edgeLabel;html=1;align=center;verticalAlign=middle;resizable=0;points=[];" vertex="1" connectable="0" parent="DEyYZ8olGmQfGEQhswtA-40">
          <mxGeometry x="-0.0835" y="-1" relative="1" as="geometry">
            <mxPoint x="34" y="30" as="offset" />
          </mxGeometry>
        </mxCell>
        <mxCell id="DEyYZ8olGmQfGEQhswtA-44" style="edgeStyle=orthogonalEdgeStyle;rounded=0;orthogonalLoop=1;jettySize=auto;html=1;exitX=0.5;exitY=1;exitDx=0;exitDy=0;entryX=1;entryY=0.5;entryDx=0;entryDy=0;" edge="1" parent="DEyYZ8olGmQfGEQhswtA-22" source="DEyYZ8olGmQfGEQhswtA-28" target="DEyYZ8olGmQfGEQhswtA-24">
          <mxGeometry relative="1" as="geometry" />
        </mxCell>
        <mxCell id="DEyYZ8olGmQfGEQhswtA-45" value="Solicita a conversão de dados" style="edgeLabel;html=1;align=center;verticalAlign=middle;resizable=0;points=[];" vertex="1" connectable="0" parent="DEyYZ8olGmQfGEQhswtA-44">
          <mxGeometry x="-0.0671" y="-1" relative="1" as="geometry">
            <mxPoint as="offset" />
          </mxGeometry>
        </mxCell>
        <mxCell id="DEyYZ8olGmQfGEQhswtA-28" value="&lt;b&gt;Infraestrutura (Infra)&lt;/b&gt;&lt;div&gt;&lt;i&gt;&lt;font style=&quot;font-size: 10px;&quot;&gt;[.NET 8 Class Library]&lt;/font&gt;&lt;/i&gt;&lt;/div&gt;" style="rounded=1;whiteSpace=wrap;html=1;fillColor=#1ba1e2;fontColor=#ffffff;strokeColor=#006EAF;" vertex="1" parent="DEyYZ8olGmQfGEQhswtA-22">
          <mxGeometry x="850" y="270" width="210" height="100" as="geometry" />
        </mxCell>
        <mxCell id="DEyYZ8olGmQfGEQhswtA-29" value="Aplicação criada com o template de solução" style="text;html=1;align=center;verticalAlign=middle;resizable=0;points=[];autosize=1;strokeColor=none;fillColor=none;fontSize=16;fontStyle=1" vertex="1" parent="DEyYZ8olGmQfGEQhswtA-22">
          <mxGeometry x="830" y="830" width="340" height="30" as="geometry" />
        </mxCell>
        <mxCell id="DEyYZ8olGmQfGEQhswtA-48" value="Banco de dados da aplicação" style="shape=cylinder3;whiteSpace=wrap;html=1;boundedLbl=1;backgroundOutline=1;size=15;fillColor=#6d8764;fontColor=#ffffff;strokeColor=#3A5431;" vertex="1" parent="1">
          <mxGeometry x="-160" y="471.25" width="100" height="128.75" as="geometry" />
        </mxCell>
        <mxCell id="DEyYZ8olGmQfGEQhswtA-53" style="edgeStyle=orthogonalEdgeStyle;rounded=0;orthogonalLoop=1;jettySize=auto;html=1;exitX=1;exitY=0.75;exitDx=0;exitDy=0;entryX=0.007;entryY=0.731;entryDx=0;entryDy=0;entryPerimeter=0;" edge="1" parent="1" source="DEyYZ8olGmQfGEQhswtA-28" target="DEyYZ8olGmQfGEQhswtA-48">
          <mxGeometry relative="1" as="geometry" />
        </mxCell>
        <mxCell id="DEyYZ8olGmQfGEQhswtA-55" value="Realiza consulta de dados" style="edgeLabel;html=1;align=center;verticalAlign=middle;resizable=0;points=[];" vertex="1" connectable="0" parent="DEyYZ8olGmQfGEQhswtA-53">
          <mxGeometry x="-0.1158" relative="1" as="geometry">
            <mxPoint as="offset" />
          </mxGeometry>
        </mxCell>
        <mxCell id="DEyYZ8olGmQfGEQhswtA-54" style="edgeStyle=orthogonalEdgeStyle;rounded=0;orthogonalLoop=1;jettySize=auto;html=1;exitX=1;exitY=0.25;exitDx=0;exitDy=0;entryX=-0.002;entryY=0.343;entryDx=0;entryDy=0;entryPerimeter=0;" edge="1" parent="1" source="DEyYZ8olGmQfGEQhswtA-28" target="DEyYZ8olGmQfGEQhswtA-48">
          <mxGeometry relative="1" as="geometry" />
        </mxCell>
        <mxCell id="DEyYZ8olGmQfGEQhswtA-56" value="Persiste dados" style="edgeLabel;html=1;align=center;verticalAlign=middle;resizable=0;points=[];" vertex="1" connectable="0" parent="DEyYZ8olGmQfGEQhswtA-54">
          <mxGeometry x="-0.0371" y="-1" relative="1" as="geometry">
            <mxPoint as="offset" />
          </mxGeometry>
        </mxCell>
      </root>
    </mxGraphModel>
  </diagram>
</mxfile>
